HIERARCHY
ROOT Root
{
  OFFSET 0.0 0.0 0.0
  CHANNELS 6 Xposition Yposition Zposition Zrotation Yrotation Xrotation
  JOINT Hips
  {
    OFFSET 0.0 100.0 0.0
    CHANNELS 6 Xposition Yposition Zposition Zrotation Yrotation Xrotation
    JOINT Spine1
    {
      OFFSET 5.003913 -0.037094 -0.013727
      CHANNELS 3 Zrotation Yrotation Xrotation
      JOINT Spine2
      {
        OFFSET 7.125363 -1e-06 0.0
        CHANNELS 3 Zrotation Yrotation Xrotation
        JOINT Chest
        {
          OFFSET 7.594027 1e-06 0.0
          CHANNELS 3 Zrotation Yrotation Xrotation
          JOINT Neck1
          {
            OFFSET 26.313086 -0.460272 -0.181672
            CHANNELS 3 Zrotation Yrotation Xrotation
            JOINT Neck2
            {
              OFFSET 8.045911 0.0 0.0
              CHANNELS 3 Zrotation Yrotation Xrotation
              JOINT Head
              {
                OFFSET 6.432774 0.0 0.0
                CHANNELS 3 Zrotation Yrotation Xrotation
                JOINT HeadEnd
                {
                  OFFSET 16.169773 0.06451 0.00362
                  CHANNELS 3 Zrotation Yrotation Xrotation
                }
                JOINT Jaw
                {
                  OFFSET 0.108741 3.12938 0.002639
                  CHANNELS 3 Zrotation Yrotation Xrotation
                }
                JOINT LeftEye
                {
                  OFFSET 4.45173 8.166359 3.206392
                  CHANNELS 3 Zrotation Yrotation Xrotation
                }
                JOINT RightEye
                {
                  OFFSET 4.436895 8.135758 -3.222429
                  CHANNELS 3 Zrotation Yrotation Xrotation
                }
              }
            }
          }
          JOINT LeftShoulder
          {
            OFFSET 23.218927 5.195579 1.621656
            CHANNELS 3 Zrotation Yrotation Xrotation
            JOINT LeftArm
            {
              OFFSET 15.902118 2e-06 -2e-06
              CHANNELS 3 Zrotation Yrotation Xrotation
              JOINT LeftForeArm
              {
                OFFSET 28.739307 0.0 -1e-06
                CHANNELS 3 Zrotation Yrotation Xrotation
                JOINT LeftHand
                {
                  OFFSET 27.093981 -4e-06 0.0
                  CHANNELS 3 Zrotation Yrotation Xrotation
                  JOINT LeftHandThumb1
                  {
                    OFFSET 2.276781 3.380274 0.83384
                    CHANNELS 3 Zrotation Yrotation Xrotation
                    JOINT LeftHandThumb2
                    {
                      OFFSET 4.705309 -1e-06 -1e-06
                      CHANNELS 3 Zrotation Yrotation Xrotation
                      JOINT LeftHandThumb3
                      {
                        OFFSET 2.798515 0.0 3e-06
                        CHANNELS 3 Zrotation Yrotation Xrotation
                        JOINT LeftHandThumbEnd
                        {
                          OFFSET 3.180793 4e-06 -4e-06
                          CHANNELS 3 Zrotation Yrotation Xrotation
                        }
                      }
                    }
                  }
                  JOINT LeftHandIndex1
                  {
                    OFFSET 3.247786 2.352677 0.137192
                    CHANNELS 3 Zrotation Yrotation Xrotation
                    JOINT LeftHandIndex2
                    {
                      OFFSET 6.367095 1e-06 0.0
                      CHANNELS 3 Zrotation Yrotation Xrotation
                      JOINT LeftHandIndex3
                      {
                        OFFSET 3.662364 0.0 0.0
                        CHANNELS 3 Zrotation Yrotation Xrotation
                        JOINT LeftHandIndex4
                        {
                          OFFSET 2.329242 4e-06 -4e-06
                          CHANNELS 3 Zrotation Yrotation Xrotation
                          JOINT LeftHandIndexEnd
                          {
                            OFFSET 2.767823 1e-06 0.0
                            CHANNELS 3 Zrotation Yrotation Xrotation
                          }
                        }
                      }
                    }
                  }
                  JOINT LeftHandMiddle1
                  {
                    OFFSET 3.163612 0.945023 -0.406112
                    CHANNELS 3 Zrotation Yrotation Xrotation
                    JOINT LeftHandMiddle2
                    {
                      OFFSET 6.276789 3e-06 0.0
                      CHANNELS 3 Zrotation Yrotation Xrotation
                      JOINT LeftHandMiddle3
                      {
                        OFFSET 4.35652 -1e-06 4e-06
                        CHANNELS 3 Zrotation Yrotation Xrotation
                        JOINT LeftHandMiddle4
                        {
                          OFFSET 2.996877 0.0 8e-06
                          CHANNELS 3 Zrotation Yrotation Xrotation
                          JOINT LeftHandMiddleEnd
                          {
                            OFFSET 2.323256 3e-06 -4e-06
                            CHANNELS 3 Zrotation Yrotation Xrotation
                          }
                        }
                      }
                    }
                  }
                  JOINT LeftHandRing1
                  {
                    OFFSET 2.882606 -0.309162 0.107445
                    CHANNELS 3 Zrotation Yrotation Xrotation
                    JOINT LeftHandRing2
                    {
                      OFFSET 6.033198 0.0 4e-06
                      CHANNELS 3 Zrotation Yrotation Xrotation
                      JOINT LeftHandRing3
                      {
                        OFFSET 4.350578 3e-06 0.0
                        CHANNELS 3 Zrotation Yrotation Xrotation
                        JOINT LeftHandRing4
                        {
                          OFFSET 2.651321 2e-06 -7e-06
                          CHANNELS 3 Zrotation Yrotation Xrotation
                          JOINT LeftHandRingEnd
                          {
                            OFFSET 1.937663 1e-06 -4e-06
                            CHANNELS 3 Zrotation Yrotation Xrotation
                          }
                        }
                      }
                    }
                  }
                  JOINT LeftHandPinky1
                  {
                    OFFSET 2.865315 -1.525436 0.575687
                    CHANNELS 3 Zrotation Yrotation Xrotation
                    JOINT LeftHandPinky2
                    {
                      OFFSET 5.54936 1e-06 -8e-06
                      CHANNELS 3 Zrotation Yrotation Xrotation
                      JOINT LeftHandPinky3
                      {
                        OFFSET 3.070974 0.0 -4e-06
                        CHANNELS 3 Zrotation Yrotation Xrotation
                        JOINT LeftHandPinky4
                        {
                          OFFSET 1.549672 1e-06 0.0
                          CHANNELS 3 Zrotation Yrotation Xrotation
                          JOINT LeftHandPinkyEnd
                          {
                            OFFSET 1.952123 0.0 0.0
                            CHANNELS 3 Zrotation Yrotation Xrotation
                          }
                        }
                      }
                    }
                  }
                }
              }
            }
          }
          JOINT RightShoulder
          {
            OFFSET 23.161716 5.296122 -1.380114
            CHANNELS 3 Zrotation Yrotation Xrotation
            JOINT RightArm
            {
              OFFSET -16.027195 -2e-06 1.1e-05
              CHANNELS 3 Zrotation Yrotation Xrotation
              JOINT RightForeArm
              {
                OFFSET -28.736639 4e-06 2e-06
                CHANNELS 3 Zrotation Yrotation Xrotation
                JOINT RightHand
                {
                  OFFSET -27.133619 6e-06 0.0
                  CHANNELS 3 Zrotation Yrotation Xrotation
                  JOINT RightHandThumb1
                  {
                    OFFSET -2.274328 -3.351035 -0.83067
                    CHANNELS 3 Zrotation Yrotation Xrotation
                    JOINT RightHandThumb2
                    {
                      OFFSET -4.703594 -3e-06 2e-06
                      CHANNELS 3 Zrotation Yrotation Xrotation
                      JOINT RightHandThumb3
                      {
                        OFFSET -2.794935 -4e-06 -3e-06
                        CHANNELS 3 Zrotation Yrotation Xrotation
                        JOINT RightHandThumbEnd
                        {
                          OFFSET -3.183852 4e-06 1e-06
                          CHANNELS 3 Zrotation Yrotation Xrotation
                        }
                      }
                    }
                  }
                  JOINT RightHandIndex1
                  {
                    OFFSET -3.253496 -2.33755 -0.127667
                    CHANNELS 3 Zrotation Yrotation Xrotation
                    JOINT RightHandIndex2
                    {
                      OFFSET -6.344434 0.0 0.0
                      CHANNELS 3 Zrotation Yrotation Xrotation
                      JOINT RightHandIndex3
                      {
                        OFFSET -3.654871 0.0 -8e-06
                        CHANNELS 3 Zrotation Yrotation Xrotation
                        JOINT RightHandIndex4
                        {
                          OFFSET -2.327586 -1e-06 0.0
                          CHANNELS 3 Zrotation Yrotation Xrotation
                          JOINT RightHandIndexEnd
                          {
                            OFFSET -2.770001 3e-06 8e-06
                            CHANNELS 3 Zrotation Yrotation Xrotation
                          }
                        }
                      }
                    }
                  }
                  JOINT RightHandMiddle1
                  {
                    OFFSET -3.168223 -0.944764 0.411762
                    CHANNELS 3 Zrotation Yrotation Xrotation
                    JOINT RightHandMiddle2
                    {
                      OFFSET -6.266691 -1e-06 -4e-06
                      CHANNELS 3 Zrotation Yrotation Xrotation
                      JOINT RightHandMiddle3
                      {
                        OFFSET -4.348901 0.0 0.0
                        CHANNELS 3 Zrotation Yrotation Xrotation
                        JOINT RightHandMiddle4
                        {
                          OFFSET -3.00024 2e-06 -4e-06
                          CHANNELS 3 Zrotation Yrotation Xrotation
                          JOINT RightHandMiddleEnd
                          {
                            OFFSET -2.321477 -4e-06 -4e-06
                            CHANNELS 3 Zrotation Yrotation Xrotation
                          }
                        }
                      }
                    }
                  }
                  JOINT RightHandRing1
                  {
                    OFFSET -2.885654 0.293261 -0.119232
                    CHANNELS 3 Zrotation Yrotation Xrotation
                    JOINT RightHandRing2
                    {
                      OFFSET -6.032835 -1e-06 -4e-06
                      CHANNELS 3 Zrotation Yrotation Xrotation
                      JOINT RightHandRing3
                      {
                        OFFSET -4.33881 0.0 -4e-06
                        CHANNELS 3 Zrotation Yrotation Xrotation
                        JOINT RightHandRing4
                        {
                          OFFSET -2.654903 -4e-06 -4e-06
                          CHANNELS 3 Zrotation Yrotation Xrotation
                          JOINT RightHandRingEnd
                          {
                            OFFSET -1.935122 0.0 4e-06
                            CHANNELS 3 Zrotation Yrotation Xrotation
                          }
                        }
                      }
                    }
                  }
                  JOINT RightHandPinky1
                  {
                    OFFSET -2.866241 1.503904 -0.60527
                    CHANNELS 3 Zrotation Yrotation Xrotation
                    JOINT RightHandPinky2
                    {
                      OFFSET -5.553177 -2e-06 0.0
                      CHANNELS 3 Zrotation Yrotation Xrotation
                      JOINT RightHandPinky3
                      {
                        OFFSET -3.062664 -1e-06 -4e-06
                        CHANNELS 3 Zrotation Yrotation Xrotation
                        JOINT RightHandPinky4
                        {
                          OFFSET -1.546529 2e-06 4e-06
                          CHANNELS 3 Zrotation Yrotation Xrotation
                          JOINT RightHandPinkyEnd
                          {
                            OFFSET -1.952341 0.0 -4e-06
                            CHANNELS 3 Zrotation Yrotation Xrotation
                          }
                        }
                      }
                    }
                  }
                }
              }
            }
          }
        }
      }
    }
    JOINT LeftLeg
    {
      OFFSET -8.443107 2.567604 10.043214
      CHANNELS 3 Zrotation Yrotation Xrotation
      JOINT LeftShin
      {
        OFFSET 43.229198 1e-06 -1e-06
        CHANNELS 3 Zrotation Yrotation Xrotation
        JOINT LeftFoot
        {
          OFFSET 42.298611 1e-06 1e-06
          CHANNELS 3 Zrotation Yrotation Xrotation
          JOINT LeftToeBase
          {
            OFFSET 14.165858 1e-06 0.0
            CHANNELS 3 Zrotation Yrotation Xrotation
            JOINT LeftToeEnd
            {
              OFFSET 6.7141 -0.234461 0.0
              CHANNELS 3 Zrotation Yrotation Xrotation
            }
          }
        }
      }
    }
    JOINT RightLeg
    {
      OFFSET -8.303923 2.592729 -10.047278
      CHANNELS 3 Zrotation Yrotation Xrotation
      JOINT RightShin
      {
        OFFSET -43.369682 0.0 1e-06
        CHANNELS 3 Zrotation Yrotation Xrotation
        JOINT RightFoot
        {
          OFFSET -42.260784 4e-06 2e-06
          CHANNELS 3 Zrotation Yrotation Xrotation
          JOINT RightToeBase
          {
            OFFSET -14.222245 -2e-06 -1e-06
            CHANNELS 3 Zrotation Yrotation Xrotation
            JOINT RightToeEnd
            {
              OFFSET -6.660062 0.232574 -2e-06
              CHANNELS 3 Zrotation Yrotation Xrotation
            }
          }
        }
      }
    }
  }
}
MOTION
Frames: 4
Frame Time: 0.03333333333333333
0.0 0.0 0.0 0.0 -0.0 0.0 2.580275 99.99897 2.618323 91.629974 0.574442 89.974442 -3.979307 0.27744 0.223739 -12.069734 -0.171784 -0.10471 15.924753 0.083024 -1.914564 29.642902 -4.250734 2.428296 -2.646494 -0.670476 0.208757 -31.563015 -1.022273 0.624521 6e-06 -0.0 0.0 0.03262 0.030931 -0.006339 0.033098 0.00646 -0.00753 0.069862 0.048708 0.000458 -151.305847 -59.873856 167.287155 23.034864 -41.114388 24.428904 31.745716 0.061035 0.048367 -5.316327 8.881206 -5.822338 17.636631 -26.322739 52.411209 -19.466658 -14.395596 29.410393 -0.0 -8.774822 -1e-06 16.178419 -18.000244 5.820822 -0.609776 -1.79565 -3.889326 -4.807091 -11.046811 -2.937851 4e-06 -20.976015 -1e-06 -5.019971 -25.033556 -4.031881 5e-06 2e-06 0.0 -10.634535 -5.686968 -3.565587 10.573275 -17.922949 -3.113899 2e-06 -13.821206 2e-06 -0.501781 -31.181498 -4.027012 -10.603503 -58.935211 6.157167 -13.982716 -7.150197 -2.87504 13.772731 -8.401493 -3.218243 0.347733 -34.211555 0.771656 -0.963031 -17.73337 2.621022 -2e-06 0.0 -0.0 -17.346422 -20.095217 -4.201782 21.757557 -1.638375 3.86643 2e-06 -6.338825 1e-06 -1.697591 -22.591747 -6.194005 0.0 -5e-06 -2e-06 34.739311 -72.871155 160.287186 40.515594 -50.828522 11.052329 17.278593 -0.657722 -0.04866 -0.324248 -1.736717 4.007821 22.182112 -20.3759 49.933334 -16.701817 -16.74353 28.476536 -3e-06 -12.690602 -0.0 16.392921 -17.503313 2.356633 -0.105919 -1.513856 -4.275882 -5.039041 -5.612872 -2.953556 4e-06 -11.020525 -2e-06 -6.111297 -15.895332 -3.840471 -0.0 1e-06 -1e-06 -10.283369 -5.680287 -4.34184 11.028294 -11.302404 -2.372634 -1.384268 -14.238581 -6.320122 -0.625438 -26.924194 -3.8276 -4.40913 -49.980186 -3.799149 -13.708524 -7.363478 -3.720938 18.141148 -14.052739 -3.24268 4e-06 -18.787271 -1e-06 -0.42971 -8.456045 2.555505 1e-06 0.0 0.0 -15.923534 -20.094484 -5.473583 30.419214 -7.190824 1.735925 1e-06 -8.162927 -1e-06 -1.861901 -22.861469 -6.167942 -0.0 -4e-06 -2e-06 177.992599 -1.303506 -14.161709 12.590381 -0.027152 0.071739 -78.260406 -5.427265 -6.075847 -5.983334 1.404624 2.060497 -0.999999 0.0 -0.0 -2.855901 -6.220096 -5.633313 16.098969 -0.013005 0.025186 -81.080368 -1.903289 -6.23198 -5.983643 0.772765 1.700692 -1.000001 -0.0 0.0 
0.0 0.0 0.0 0.0 -0.0 0.0 2.611368 100.023232 2.565424 91.64325 0.592675 89.959656 -3.978827 0.246753 0.197802 -12.064339 -0.156993 -0.050459 15.946678 0.101621 -1.957551 29.652313 -4.220601 2.44218 -2.650949 -0.649101 0.179781 -31.595036 -1.019177 0.636795 6e-06 -0.0 0.0 0.031842 0.027829 -0.000718 0.037382 0.003818 0.001371 0.069681 0.045465 0.002709 -151.26619 -59.940506 167.342239 23.093327 -41.133118 24.113382 31.691891 -0.017909 0.019362 -5.196127 8.834743 -5.821888 17.636631 -26.322733 52.411198 -19.466663 -14.395597 29.410393 -1e-06 -8.774822 -1e-06 16.168997 -17.951561 5.80804 -0.609777 -1.795655 -3.889328 -4.807087 -11.046809 -2.93785 6e-06 -20.976019 -1e-06 -5.01997 -25.033556 -4.031879 7e-06 1e-06 0.0 -10.634535 -5.68697 -3.565587 10.573275 -17.922951 -3.113899 3e-06 -13.821209 -1e-06 -0.501776 -31.181507 -4.027015 -10.563098 -58.912037 6.19755 -13.982715 -7.150198 -2.87504 13.772731 -8.401492 -3.218244 0.347733 -34.211555 0.771654 -0.963029 -17.73337 2.621019 -2e-06 -1e-06 -0.0 -17.346422 -20.095221 -4.201783 21.757557 -1.638375 3.866428 3e-06 -6.338824 0.0 -1.697589 -22.591743 -6.194005 0.0 -4e-06 -2e-06 34.892094 -72.876648 160.237473 40.415962 -50.863388 11.045362 17.169556 -0.658498 -0.062714 -0.30225 -1.864896 4.17275 22.182117 -20.375898 49.933327 -16.701817 -16.74353 28.476532 -4e-06 -12.690603 0.0 16.380299 -17.493269 2.338846 -0.105919 -1.513855 -4.275884 -5.03904 -5.612871 -2.953554 5e-06 -11.020521 -1e-06 -6.111296 -15.895329 -3.840471 0.0 0.0 -1e-06 -10.283371 -5.680287 -4.341839 11.028296 -11.302404 -2.372633 -1.384267 -14.238577 -6.32012 -0.625435 -26.924187 -3.8276 -4.459288 -50.053394 -3.722689 -13.708526 -7.363475 -3.720939 18.141153 -14.052739 -3.242676 6e-06 -18.78727 0.0 -0.429711 -8.456047 2.555506 0.0 1e-06 -1e-06 -15.923536 -20.094482 -5.473588 30.41921 -7.190829 1.735927 3e-06 -8.162927 1e-06 -1.861901 -22.861467 -6.16794 -2e-06 -5e-06 -1e-06 178.156662 -1.222012 -14.151406 12.230074 -0.014484 0.112608 -78.090851 -5.390556 -6.109715 -6.034448 1.420862 2.067488 -0.999999 0.0 0.0 -2.778937 -6.237151 -5.562451 15.899894 -0.009209 0.015414 -80.939194 -1.951434 -6.229354 -6.029803 0.760808 1.699453 -1.000002 0.0 0.0 
0.0 0.0 0.0 0.0 -0.0 0.0 2.645145 100.026024 2.513028 91.664398 0.622254 89.937569 -3.98449 0.216354 0.187551 -12.073089 -0.155041 -0.028184 16.013315 0.123523 -1.971358 29.682325 -4.190238 2.46069 -2.681896 -0.619682 0.121691 -31.589602 -1.000955 0.636656 6e-06 -0.0 0.0 0.03087 0.026537 -0.007094 0.025402 0.000616 -0.001573 0.058692 0.046029 -0.007402 -151.273087 -60.012863 167.406693 23.077801 -41.143829 23.960381 31.671785 -0.061161 -0.005129 -5.199803 8.752824 -6.002005 17.636627 -26.322735 52.41119 -19.466663 -14.395597 29.410389 -1e-06 -8.774821 -1e-06 16.176102 -17.959831 5.801693 -0.609776 -1.795654 -3.88933 -4.807087 -11.04681 -2.93785 5e-06 -20.976019 0.0 -5.019972 -25.033552 -4.031878 6e-06 2e-06 1e-06 -10.634531 -5.686968 -3.565586 10.573272 -17.922951 -3.113901 3e-06 -13.82121 1e-06 -0.501777 -31.181505 -4.027014 -10.590806 -58.904003 6.204482 -13.982711 -7.150196 -2.87504 13.77273 -8.401492 -3.218244 0.347733 -34.211555 0.771656 -0.963031 -17.73337 2.621022 -2e-06 0.0 -0.0 -17.346413 -20.095219 -4.201783 21.757555 -1.638375 3.866427 2e-06 -6.338824 1e-06 -1.69759 -22.591747 -6.194005 0.0 -3e-06 -3e-06 35.005753 -72.878273 160.197281 40.273308 -50.898952 11.035765 17.056427 -0.683855 -0.074253 -0.311198 -1.937879 4.325578 22.182117 -20.375895 49.933319 -16.701817 -16.743526 28.47653 -6e-06 -12.6906 -2e-06 16.365793 -17.453203 2.329777 -0.105918 -1.513856 -4.275879 -5.03904 -5.612872 -2.953556 6e-06 -11.020524 -2e-06 -6.111293 -15.895332 -3.840472 0.0 -0.0 -2e-06 -10.283369 -5.680287 -4.341839 11.028296 -11.302407 -2.372633 -1.384266 -14.238579 -6.320121 -0.625431 -26.924191 -3.827597 -4.471727 -50.060337 -3.706037 -13.708525 -7.363474 -3.720936 18.141153 -14.052741 -3.242678 9e-06 -18.78727 -2e-06 -0.429709 -8.456043 2.555506 1e-06 -0.0 0.0 -15.923528 -20.094482 -5.473585 30.41921 -7.190833 1.735924 4e-06 -8.162926 0.0 -1.861896 -22.861471 -6.167946 -1e-06 -4e-06 -1e-06 178.192307 -1.16719 -14.159744 12.157797 -0.012446 0.139536 -78.046997 -5.344749 -6.115998 -6.026188 1.427095 2.074224 -0.999999 0.0 0.0 -2.793049 -6.282839 -5.506305 15.911295 0.00046 0.002395 -80.906372 -1.960848 -6.240999 -6.015373 0.755842 1.70014 -1.000003 1e-06 -0.0 
0.0 0.0 0.0 0.0 -0.0 0.0 2.668557 100.017563 2.46261 91.68441 0.660586 89.911255 -3.980421 0.184683 0.180538 -12.089561 -0.154242 -0.02708 16.088781 0.140575 -1.945204 29.723286 -4.156375 2.463049 -2.712868 -0.607314 0.084481 -31.596544 -0.970096 0.606643 6e-06 -0.0 -0.0 0.030123 0.025606 -0.01379 0.011745 -0.002327 -0.005033 0.046616 0.047008 -0.017709 -151.278976 -60.074062 167.456299 23.083263 -41.13868 23.919319 31.632429 -0.076356 -0.009989 -5.250718 8.745155 -6.12822 17.636629 -26.322729 52.411194 -19.466658 -14.395594 29.410381 -1e-06 -8.774821 -2e-06 16.172388 -17.960878 5.806225 -0.609776 -1.795652 -3.889327 -4.807088 -11.046807 -2.93785 4e-06 -20.976011 0.0 -5.019969 -25.033552 -4.03188 7e-06 3e-06 -1e-06 -10.634533 -5.686969 -3.565589 10.573271 -17.922947 -3.113899 2e-06 -13.821206 1e-06 -0.501779 -31.181498 -4.027013 -10.606511 -58.903519 6.204577 -13.982711 -7.150197 -2.875046 13.772724 -8.40149 -3.21824 0.347733 -34.211536 0.771655 -0.963029 -17.733366 2.621023 -2e-06 1e-06 1e-06 -17.346413 -20.095213 -4.201781 21.757553 -1.638374 3.866428 2e-06 -6.338823 -1e-06 -1.69759 -22.59174 -6.194004 -0.0 -3e-06 -2e-06 35.116547 -72.876053 160.141266 40.135815 -50.937668 11.173891 16.95471 -0.676292 -0.077235 -0.346386 -2.032174 4.407258 22.182108 -20.375895 49.933319 -16.701811 -16.743528 28.47653 -5e-06 -12.690599 1e-06 16.348816 -17.419416 2.330111 -0.105919 -1.513856 -4.27588 -5.03904 -5.61287 -2.953554 4e-06 -11.02052 -1e-06 -6.111297 -15.895328 -3.840472 -0.0 -0.0 -1e-06 -10.283368 -5.680286 -4.341836 11.028293 -11.302402 -2.372634 -1.384268 -14.238577 -6.320121 -0.625439 -26.924185 -3.8276 -4.486392 -50.031055 -3.681837 -13.708522 -7.363474 -3.72094 18.141148 -14.052738 -3.242674 7e-06 -18.787266 -0.0 -0.42971 -8.456045 2.555504 1e-06 -0.0 1e-06 -15.923532 -20.094479 -5.473585 30.41921 -7.190824 1.735925 4e-06 -8.162927 2e-06 -1.861905 -22.861467 -6.167937 1e-06 -3e-06 -2e-06 178.158813 -1.142409 -14.184519 12.248451 -0.015209 0.150466 -78.069862 -5.309466 -6.117904 -6.027543 1.431114 2.076438 -0.999999 0.0 -0.0 -2.848854 -6.329802 -5.486438 16.029398 0.006282 -0.011086 -80.931084 -1.929796 -6.246911 -6.011378 0.747689 1.698594 -1.000002 0.0 0.0 
